<mxfile host="app.diagrams.net" agent="Mozilla/5.0 (Windows NT 10.0; Win64; x64) AppleWebKit/537.36 (KHTML, like Gecko) Chrome/129.0.0.0 Safari/537.36" version="24.7.16">
  <diagram name="‫עמוד-1‬" id="hCTD3Lkax3oOqMS_Tq8W">
    <mxGraphModel dx="318" dy="182" grid="1" gridSize="10" guides="1" tooltips="1" connect="1" arrows="1" fold="1" page="1" pageScale="1" pageWidth="1169" pageHeight="827" background="none" math="1" shadow="0">
      <root>
        <mxCell id="0" />
        <mxCell id="1" parent="0" />
        <mxCell id="n799LKl57bNKiFuB-0P--148" value="" style="rounded=1;whiteSpace=wrap;html=1;rotation=90;fillColor=#dae8fc;strokeColor=#6c8ebf;" parent="1" vertex="1">
          <mxGeometry x="243" y="224.52" width="88.94" height="40.06" as="geometry" />
        </mxCell>
        <mxCell id="n799LKl57bNKiFuB-0P--264" style="edgeStyle=orthogonalEdgeStyle;rounded=0;orthogonalLoop=1;jettySize=auto;html=1;" parent="1" source="n799LKl57bNKiFuB-0P--150" target="n799LKl57bNKiFuB-0P--253" edge="1">
          <mxGeometry relative="1" as="geometry" />
        </mxCell>
        <mxCell id="n799LKl57bNKiFuB-0P--265" style="edgeStyle=orthogonalEdgeStyle;rounded=0;orthogonalLoop=1;jettySize=auto;html=1;entryX=0;entryY=0.5;entryDx=0;entryDy=0;" parent="1" source="n799LKl57bNKiFuB-0P--150" target="n799LKl57bNKiFuB-0P--245" edge="1">
          <mxGeometry relative="1" as="geometry" />
        </mxCell>
        <mxCell id="n799LKl57bNKiFuB-0P--150" value="" style="shape=trapezoid;perimeter=trapezoidPerimeter;whiteSpace=wrap;html=1;fixedSize=1;rotation=90;size=35;rounded=1;fillColor=#f8cecc;strokeColor=#b85450;" parent="1" vertex="1">
          <mxGeometry x="349.8291901012371" y="196.60833333333338" width="157.6068616422947" height="107.00555555555553" as="geometry" />
        </mxCell>
        <mxCell id="n799LKl57bNKiFuB-0P--202" value="" style="group;rounded=1;" parent="1" vertex="1" connectable="0">
          <mxGeometry x="382.78335208098974" y="202.04444444444448" width="91.69853768278958" height="96.13333333333328" as="geometry" />
        </mxCell>
        <mxCell id="n799LKl57bNKiFuB-0P--203" style="edgeStyle=none;shape=connector;rounded=1;orthogonalLoop=1;jettySize=auto;html=1;entryX=0;entryY=0.5;entryDx=0;entryDy=0;align=center;verticalAlign=middle;fontFamily=Helvetica;fontSize=11;fontColor=default;labelBackgroundColor=default;endArrow=blockThin;endFill=1;movable=1;resizable=1;rotatable=1;deletable=1;editable=1;locked=0;connectable=1;" parent="n799LKl57bNKiFuB-0P--202" source="n799LKl57bNKiFuB-0P--206" target="n799LKl57bNKiFuB-0P--230" edge="1">
          <mxGeometry relative="1" as="geometry" />
        </mxCell>
        <mxCell id="n799LKl57bNKiFuB-0P--204" style="edgeStyle=none;shape=connector;rounded=1;orthogonalLoop=1;jettySize=auto;html=1;entryX=0;entryY=0.5;entryDx=0;entryDy=0;align=center;verticalAlign=middle;fontFamily=Helvetica;fontSize=11;fontColor=default;labelBackgroundColor=default;endArrow=blockThin;endFill=1;movable=1;resizable=1;rotatable=1;deletable=1;editable=1;locked=0;connectable=1;" parent="n799LKl57bNKiFuB-0P--202" source="n799LKl57bNKiFuB-0P--206" target="n799LKl57bNKiFuB-0P--220" edge="1">
          <mxGeometry relative="1" as="geometry" />
        </mxCell>
        <mxCell id="n799LKl57bNKiFuB-0P--205" style="edgeStyle=none;shape=connector;rounded=1;orthogonalLoop=1;jettySize=auto;html=1;entryX=0;entryY=0.5;entryDx=0;entryDy=0;align=center;verticalAlign=middle;fontFamily=Helvetica;fontSize=11;fontColor=default;labelBackgroundColor=default;endArrow=blockThin;endFill=1;movable=1;resizable=1;rotatable=1;deletable=1;editable=1;locked=0;connectable=1;" parent="n799LKl57bNKiFuB-0P--202" source="n799LKl57bNKiFuB-0P--206" target="n799LKl57bNKiFuB-0P--216" edge="1">
          <mxGeometry relative="1" as="geometry" />
        </mxCell>
        <mxCell id="n799LKl57bNKiFuB-0P--206" value="" style="ellipse;whiteSpace=wrap;html=1;aspect=fixed;rounded=1;align=center;verticalAlign=middle;fontFamily=Helvetica;fontSize=11;labelBackgroundColor=default;movable=1;resizable=1;rotatable=1;deletable=1;editable=1;locked=0;connectable=1;" parent="n799LKl57bNKiFuB-0P--202" vertex="1">
          <mxGeometry y="13.733333333333347" width="12.716049382716049" height="12.716049382716049" as="geometry" />
        </mxCell>
        <mxCell id="n799LKl57bNKiFuB-0P--207" value="" style="ellipse;whiteSpace=wrap;html=1;aspect=fixed;rounded=1;align=center;verticalAlign=middle;fontFamily=Helvetica;fontSize=11;labelBackgroundColor=default;movable=1;resizable=1;rotatable=1;deletable=1;editable=1;locked=0;connectable=1;" parent="n799LKl57bNKiFuB-0P--202" vertex="1">
          <mxGeometry y="41.199999999999974" width="12.716049382716049" height="12.716049382716049" as="geometry" />
        </mxCell>
        <mxCell id="n799LKl57bNKiFuB-0P--208" style="rounded=1;orthogonalLoop=1;jettySize=auto;html=1;entryX=0;entryY=0.5;entryDx=0;entryDy=0;align=center;verticalAlign=middle;fontFamily=Helvetica;fontSize=11;fontColor=default;labelBackgroundColor=default;endArrow=blockThin;endFill=1;movable=1;resizable=1;rotatable=1;deletable=1;editable=1;locked=0;connectable=1;" parent="n799LKl57bNKiFuB-0P--202" source="n799LKl57bNKiFuB-0P--212" target="n799LKl57bNKiFuB-0P--230" edge="1">
          <mxGeometry relative="1" as="geometry" />
        </mxCell>
        <mxCell id="n799LKl57bNKiFuB-0P--209" style="edgeStyle=none;shape=connector;rounded=1;orthogonalLoop=1;jettySize=auto;html=1;entryX=0;entryY=0.5;entryDx=0;entryDy=0;align=center;verticalAlign=middle;fontFamily=Helvetica;fontSize=11;fontColor=default;labelBackgroundColor=default;endArrow=blockThin;endFill=1;movable=1;resizable=1;rotatable=1;deletable=1;editable=1;locked=0;connectable=1;" parent="n799LKl57bNKiFuB-0P--202" source="n799LKl57bNKiFuB-0P--212" target="n799LKl57bNKiFuB-0P--220" edge="1">
          <mxGeometry relative="1" as="geometry" />
        </mxCell>
        <mxCell id="n799LKl57bNKiFuB-0P--210" style="edgeStyle=none;shape=connector;rounded=1;orthogonalLoop=1;jettySize=auto;html=1;entryX=0;entryY=0.5;entryDx=0;entryDy=0;align=center;verticalAlign=middle;fontFamily=Helvetica;fontSize=11;fontColor=default;labelBackgroundColor=default;endArrow=blockThin;endFill=1;movable=1;resizable=1;rotatable=1;deletable=1;editable=1;locked=0;connectable=1;" parent="n799LKl57bNKiFuB-0P--202" source="n799LKl57bNKiFuB-0P--212" target="n799LKl57bNKiFuB-0P--216" edge="1">
          <mxGeometry relative="1" as="geometry" />
        </mxCell>
        <mxCell id="n799LKl57bNKiFuB-0P--211" style="edgeStyle=none;shape=connector;rounded=1;orthogonalLoop=1;jettySize=auto;html=1;entryX=0;entryY=0.5;entryDx=0;entryDy=0;align=center;verticalAlign=middle;fontFamily=Helvetica;fontSize=11;fontColor=default;labelBackgroundColor=default;endArrow=blockThin;endFill=1;movable=1;resizable=1;rotatable=1;deletable=1;editable=1;locked=0;connectable=1;" parent="n799LKl57bNKiFuB-0P--202" source="n799LKl57bNKiFuB-0P--212" target="n799LKl57bNKiFuB-0P--234" edge="1">
          <mxGeometry relative="1" as="geometry" />
        </mxCell>
        <mxCell id="n799LKl57bNKiFuB-0P--212" value="" style="ellipse;whiteSpace=wrap;html=1;aspect=fixed;rounded=1;align=center;verticalAlign=middle;fontFamily=Helvetica;fontSize=11;labelBackgroundColor=default;movable=1;resizable=1;rotatable=1;deletable=1;editable=1;locked=0;connectable=1;" parent="n799LKl57bNKiFuB-0P--202" vertex="1">
          <mxGeometry y="68.66666666666664" width="12.716049382716049" height="12.716049382716049" as="geometry" />
        </mxCell>
        <mxCell id="n799LKl57bNKiFuB-0P--213" style="edgeStyle=none;shape=connector;rounded=1;orthogonalLoop=1;jettySize=auto;html=1;entryX=0;entryY=0.5;entryDx=0;entryDy=0;align=center;verticalAlign=middle;fontFamily=Helvetica;fontSize=11;fontColor=default;labelBackgroundColor=default;endArrow=blockThin;endFill=1;movable=1;resizable=1;rotatable=1;deletable=1;editable=1;locked=0;connectable=1;" parent="n799LKl57bNKiFuB-0P--202" source="n799LKl57bNKiFuB-0P--216" target="n799LKl57bNKiFuB-0P--236" edge="1">
          <mxGeometry relative="1" as="geometry" />
        </mxCell>
        <mxCell id="n799LKl57bNKiFuB-0P--214" style="edgeStyle=none;shape=connector;rounded=1;orthogonalLoop=1;jettySize=auto;html=1;entryX=0;entryY=0.5;entryDx=0;entryDy=0;align=center;verticalAlign=middle;fontFamily=Helvetica;fontSize=11;fontColor=default;labelBackgroundColor=default;endArrow=blockThin;endFill=1;movable=1;resizable=1;rotatable=1;deletable=1;editable=1;locked=0;connectable=1;" parent="n799LKl57bNKiFuB-0P--202" source="n799LKl57bNKiFuB-0P--216" target="n799LKl57bNKiFuB-0P--235" edge="1">
          <mxGeometry relative="1" as="geometry" />
        </mxCell>
        <mxCell id="n799LKl57bNKiFuB-0P--215" style="edgeStyle=none;shape=connector;rounded=1;orthogonalLoop=1;jettySize=auto;html=1;entryX=0;entryY=0.5;entryDx=0;entryDy=0;align=center;verticalAlign=middle;fontFamily=Helvetica;fontSize=11;fontColor=default;labelBackgroundColor=default;endArrow=blockThin;endFill=1;movable=1;resizable=1;rotatable=1;deletable=1;editable=1;locked=0;connectable=1;" parent="n799LKl57bNKiFuB-0P--202" source="n799LKl57bNKiFuB-0P--216" target="n799LKl57bNKiFuB-0P--238" edge="1">
          <mxGeometry relative="1" as="geometry" />
        </mxCell>
        <mxCell id="n799LKl57bNKiFuB-0P--216" value="" style="ellipse;whiteSpace=wrap;html=1;aspect=fixed;rounded=1;align=center;verticalAlign=middle;fontFamily=Helvetica;fontSize=11;labelBackgroundColor=default;movable=1;resizable=1;rotatable=1;deletable=1;editable=1;locked=0;connectable=1;" parent="n799LKl57bNKiFuB-0P--202" vertex="1">
          <mxGeometry x="39.29937329262413" y="82.39999999999995" width="12.716049382716049" height="12.716049382716049" as="geometry" />
        </mxCell>
        <mxCell id="n799LKl57bNKiFuB-0P--217" style="edgeStyle=none;shape=connector;rounded=1;orthogonalLoop=1;jettySize=auto;html=1;entryX=0;entryY=0.5;entryDx=0;entryDy=0;align=center;verticalAlign=middle;fontFamily=Helvetica;fontSize=11;fontColor=default;labelBackgroundColor=default;endArrow=blockThin;endFill=1;movable=1;resizable=1;rotatable=1;deletable=1;editable=1;locked=0;connectable=1;" parent="n799LKl57bNKiFuB-0P--202" source="n799LKl57bNKiFuB-0P--220" target="n799LKl57bNKiFuB-0P--236" edge="1">
          <mxGeometry relative="1" as="geometry" />
        </mxCell>
        <mxCell id="n799LKl57bNKiFuB-0P--218" style="edgeStyle=none;shape=connector;rounded=1;orthogonalLoop=1;jettySize=auto;html=1;entryX=0;entryY=0.5;entryDx=0;entryDy=0;align=center;verticalAlign=middle;fontFamily=Helvetica;fontSize=11;fontColor=default;labelBackgroundColor=default;endArrow=blockThin;endFill=1;movable=1;resizable=1;rotatable=1;deletable=1;editable=1;locked=0;connectable=1;" parent="n799LKl57bNKiFuB-0P--202" source="n799LKl57bNKiFuB-0P--220" target="n799LKl57bNKiFuB-0P--235" edge="1">
          <mxGeometry relative="1" as="geometry" />
        </mxCell>
        <mxCell id="n799LKl57bNKiFuB-0P--219" style="edgeStyle=none;shape=connector;rounded=1;orthogonalLoop=1;jettySize=auto;html=1;entryX=0;entryY=0.5;entryDx=0;entryDy=0;align=center;verticalAlign=middle;fontFamily=Helvetica;fontSize=11;fontColor=default;labelBackgroundColor=default;endArrow=blockThin;endFill=1;movable=1;resizable=1;rotatable=1;deletable=1;editable=1;locked=0;connectable=1;" parent="n799LKl57bNKiFuB-0P--202" source="n799LKl57bNKiFuB-0P--220" target="n799LKl57bNKiFuB-0P--238" edge="1">
          <mxGeometry relative="1" as="geometry" />
        </mxCell>
        <mxCell id="n799LKl57bNKiFuB-0P--220" value="" style="ellipse;whiteSpace=wrap;html=1;aspect=fixed;rounded=1;align=center;verticalAlign=middle;fontFamily=Helvetica;fontSize=11;labelBackgroundColor=default;movable=1;resizable=1;rotatable=1;deletable=1;editable=1;locked=0;connectable=1;" parent="n799LKl57bNKiFuB-0P--202" vertex="1">
          <mxGeometry x="39.29937329262413" y="54.93333333333339" width="12.716049382716049" height="12.716049382716049" as="geometry" />
        </mxCell>
        <mxCell id="n799LKl57bNKiFuB-0P--221" value="" style="ellipse;whiteSpace=wrap;html=1;aspect=fixed;rounded=1;align=center;verticalAlign=middle;fontFamily=Helvetica;fontSize=11;labelBackgroundColor=default;movable=1;resizable=1;rotatable=1;deletable=1;editable=1;locked=0;connectable=1;" parent="n799LKl57bNKiFuB-0P--202" vertex="1">
          <mxGeometry x="39.29937329262413" y="27.466666666666693" width="12.716049382716049" height="12.716049382716049" as="geometry" />
        </mxCell>
        <mxCell id="n799LKl57bNKiFuB-0P--222" style="edgeStyle=none;shape=connector;rounded=1;orthogonalLoop=1;jettySize=auto;html=1;entryX=0;entryY=0.5;entryDx=0;entryDy=0;align=center;verticalAlign=middle;fontFamily=Helvetica;fontSize=11;fontColor=default;labelBackgroundColor=default;endArrow=blockThin;endFill=1;movable=1;resizable=1;rotatable=1;deletable=1;editable=1;locked=0;connectable=1;" parent="n799LKl57bNKiFuB-0P--202" source="n799LKl57bNKiFuB-0P--226" target="n799LKl57bNKiFuB-0P--216" edge="1">
          <mxGeometry relative="1" as="geometry" />
        </mxCell>
        <mxCell id="n799LKl57bNKiFuB-0P--223" style="edgeStyle=none;shape=connector;rounded=1;orthogonalLoop=1;jettySize=auto;html=1;entryX=0;entryY=0.5;entryDx=0;entryDy=0;align=center;verticalAlign=middle;fontFamily=Helvetica;fontSize=11;fontColor=default;labelBackgroundColor=default;endArrow=blockThin;endFill=1;movable=1;resizable=1;rotatable=1;deletable=1;editable=1;locked=0;connectable=1;" parent="n799LKl57bNKiFuB-0P--202" source="n799LKl57bNKiFuB-0P--226" target="n799LKl57bNKiFuB-0P--220" edge="1">
          <mxGeometry relative="1" as="geometry" />
        </mxCell>
        <mxCell id="n799LKl57bNKiFuB-0P--224" style="edgeStyle=none;shape=connector;rounded=1;orthogonalLoop=1;jettySize=auto;html=1;entryX=0;entryY=0.5;entryDx=0;entryDy=0;align=center;verticalAlign=middle;fontFamily=Helvetica;fontSize=11;fontColor=default;labelBackgroundColor=default;endArrow=blockThin;endFill=1;movable=1;resizable=1;rotatable=1;deletable=1;editable=1;locked=0;connectable=1;" parent="n799LKl57bNKiFuB-0P--202" source="n799LKl57bNKiFuB-0P--226" target="n799LKl57bNKiFuB-0P--230" edge="1">
          <mxGeometry relative="1" as="geometry" />
        </mxCell>
        <mxCell id="n799LKl57bNKiFuB-0P--225" style="edgeStyle=none;shape=connector;rounded=1;orthogonalLoop=1;jettySize=auto;html=1;entryX=0;entryY=0.5;entryDx=0;entryDy=0;align=center;verticalAlign=middle;fontFamily=Helvetica;fontSize=11;fontColor=default;labelBackgroundColor=default;endArrow=blockThin;endFill=1;movable=1;resizable=1;rotatable=1;deletable=1;editable=1;locked=0;connectable=1;" parent="n799LKl57bNKiFuB-0P--202" source="n799LKl57bNKiFuB-0P--226" target="n799LKl57bNKiFuB-0P--234" edge="1">
          <mxGeometry relative="1" as="geometry" />
        </mxCell>
        <mxCell id="n799LKl57bNKiFuB-0P--226" value="" style="ellipse;whiteSpace=wrap;html=1;aspect=fixed;rounded=1;align=center;verticalAlign=middle;fontFamily=Helvetica;fontSize=11;labelBackgroundColor=default;movable=1;resizable=1;rotatable=1;deletable=1;editable=1;locked=0;connectable=1;" parent="n799LKl57bNKiFuB-0P--202" vertex="1">
          <mxGeometry y="41.199999999999974" width="12.716049382716049" height="12.716049382716049" as="geometry" />
        </mxCell>
        <mxCell id="n799LKl57bNKiFuB-0P--227" style="edgeStyle=none;shape=connector;rounded=1;orthogonalLoop=1;jettySize=auto;html=1;entryX=0;entryY=0.5;entryDx=0;entryDy=0;align=center;verticalAlign=middle;fontFamily=Helvetica;fontSize=11;fontColor=default;labelBackgroundColor=default;endArrow=blockThin;endFill=1;movable=1;resizable=1;rotatable=1;deletable=1;editable=1;locked=0;connectable=1;" parent="n799LKl57bNKiFuB-0P--202" source="n799LKl57bNKiFuB-0P--230" target="n799LKl57bNKiFuB-0P--235" edge="1">
          <mxGeometry relative="1" as="geometry" />
        </mxCell>
        <mxCell id="n799LKl57bNKiFuB-0P--228" style="edgeStyle=none;shape=connector;rounded=1;orthogonalLoop=1;jettySize=auto;html=1;entryX=0;entryY=0.5;entryDx=0;entryDy=0;align=center;verticalAlign=middle;fontFamily=Helvetica;fontSize=11;fontColor=default;labelBackgroundColor=default;endArrow=blockThin;endFill=1;movable=1;resizable=1;rotatable=1;deletable=1;editable=1;locked=0;connectable=1;" parent="n799LKl57bNKiFuB-0P--202" source="n799LKl57bNKiFuB-0P--230" target="n799LKl57bNKiFuB-0P--236" edge="1">
          <mxGeometry relative="1" as="geometry" />
        </mxCell>
        <mxCell id="n799LKl57bNKiFuB-0P--229" style="edgeStyle=none;shape=connector;rounded=1;orthogonalLoop=1;jettySize=auto;html=1;entryX=0;entryY=0.5;entryDx=0;entryDy=0;align=center;verticalAlign=middle;fontFamily=Helvetica;fontSize=11;fontColor=default;labelBackgroundColor=default;endArrow=blockThin;endFill=1;movable=1;resizable=1;rotatable=1;deletable=1;editable=1;locked=0;connectable=1;" parent="n799LKl57bNKiFuB-0P--202" source="n799LKl57bNKiFuB-0P--230" target="n799LKl57bNKiFuB-0P--238" edge="1">
          <mxGeometry relative="1" as="geometry" />
        </mxCell>
        <mxCell id="n799LKl57bNKiFuB-0P--230" value="" style="ellipse;whiteSpace=wrap;html=1;aspect=fixed;rounded=1;align=center;verticalAlign=middle;fontFamily=Helvetica;fontSize=11;labelBackgroundColor=default;movable=1;resizable=1;rotatable=1;deletable=1;editable=1;locked=0;connectable=1;" parent="n799LKl57bNKiFuB-0P--202" vertex="1">
          <mxGeometry x="39.29937329262413" y="27.466666666666693" width="12.716049382716049" height="12.716049382716049" as="geometry" />
        </mxCell>
        <mxCell id="n799LKl57bNKiFuB-0P--231" style="edgeStyle=none;shape=connector;rounded=1;orthogonalLoop=1;jettySize=auto;html=1;entryX=0;entryY=0.5;entryDx=0;entryDy=0;align=center;verticalAlign=middle;fontFamily=Helvetica;fontSize=11;fontColor=default;labelBackgroundColor=default;endArrow=blockThin;endFill=1;movable=1;resizable=1;rotatable=1;deletable=1;editable=1;locked=0;connectable=1;" parent="n799LKl57bNKiFuB-0P--202" source="n799LKl57bNKiFuB-0P--234" target="n799LKl57bNKiFuB-0P--235" edge="1">
          <mxGeometry relative="1" as="geometry" />
        </mxCell>
        <mxCell id="n799LKl57bNKiFuB-0P--232" style="edgeStyle=none;shape=connector;rounded=1;orthogonalLoop=1;jettySize=auto;html=1;entryX=0;entryY=0.5;entryDx=0;entryDy=0;align=center;verticalAlign=middle;fontFamily=Helvetica;fontSize=11;fontColor=default;labelBackgroundColor=default;endArrow=blockThin;endFill=1;movable=1;resizable=1;rotatable=1;deletable=1;editable=1;locked=0;connectable=1;" parent="n799LKl57bNKiFuB-0P--202" source="n799LKl57bNKiFuB-0P--234" target="n799LKl57bNKiFuB-0P--236" edge="1">
          <mxGeometry relative="1" as="geometry" />
        </mxCell>
        <mxCell id="n799LKl57bNKiFuB-0P--233" style="edgeStyle=none;shape=connector;rounded=1;orthogonalLoop=1;jettySize=auto;html=1;entryX=0;entryY=0.5;entryDx=0;entryDy=0;align=center;verticalAlign=middle;fontFamily=Helvetica;fontSize=11;fontColor=default;labelBackgroundColor=default;endArrow=blockThin;endFill=1;movable=1;resizable=1;rotatable=1;deletable=1;editable=1;locked=0;connectable=1;" parent="n799LKl57bNKiFuB-0P--202" source="n799LKl57bNKiFuB-0P--234" target="n799LKl57bNKiFuB-0P--238" edge="1">
          <mxGeometry relative="1" as="geometry" />
        </mxCell>
        <mxCell id="n799LKl57bNKiFuB-0P--234" value="" style="ellipse;whiteSpace=wrap;html=1;aspect=fixed;rounded=1;align=center;verticalAlign=middle;fontFamily=Helvetica;fontSize=11;labelBackgroundColor=default;movable=1;resizable=1;rotatable=1;deletable=1;editable=1;locked=0;connectable=1;" parent="n799LKl57bNKiFuB-0P--202" vertex="1">
          <mxGeometry x="39.29937329262413" width="12.716049382716049" height="12.716049382716049" as="geometry" />
        </mxCell>
        <mxCell id="n799LKl57bNKiFuB-0P--235" value="" style="ellipse;whiteSpace=wrap;html=1;aspect=fixed;movable=1;resizable=1;rotatable=1;deletable=1;editable=1;locked=0;connectable=1;rounded=1;" parent="n799LKl57bNKiFuB-0P--202" vertex="1">
          <mxGeometry x="78.59874658524826" y="13.733333333333347" width="12.716049382716049" height="12.716049382716049" as="geometry" />
        </mxCell>
        <mxCell id="n799LKl57bNKiFuB-0P--236" value="" style="ellipse;whiteSpace=wrap;html=1;aspect=fixed;movable=1;resizable=1;rotatable=1;deletable=1;editable=1;locked=0;connectable=1;rounded=1;" parent="n799LKl57bNKiFuB-0P--202" vertex="1">
          <mxGeometry x="78.59874658524826" y="68.66666666666664" width="12.716049382716049" height="12.716049382716049" as="geometry" />
        </mxCell>
        <mxCell id="n799LKl57bNKiFuB-0P--237" style="edgeStyle=none;shape=connector;rounded=1;orthogonalLoop=1;jettySize=auto;html=1;entryX=0.013;entryY=0.68;entryDx=0;entryDy=0;entryPerimeter=0;align=center;verticalAlign=middle;fontFamily=Helvetica;fontSize=11;fontColor=default;labelBackgroundColor=default;endArrow=blockThin;endFill=1;movable=1;resizable=1;rotatable=1;deletable=1;editable=1;locked=0;connectable=1;" parent="n799LKl57bNKiFuB-0P--202" source="n799LKl57bNKiFuB-0P--206" target="n799LKl57bNKiFuB-0P--234" edge="1">
          <mxGeometry relative="1" as="geometry" />
        </mxCell>
        <mxCell id="n799LKl57bNKiFuB-0P--238" value="" style="ellipse;whiteSpace=wrap;html=1;aspect=fixed;movable=1;resizable=1;rotatable=1;deletable=1;editable=1;locked=0;connectable=1;rounded=1;" parent="n799LKl57bNKiFuB-0P--202" vertex="1">
          <mxGeometry x="78.59874658524826" y="41.199999999999974" width="12.716049382716049" height="12.716049382716049" as="geometry" />
        </mxCell>
        <mxCell id="n799LKl57bNKiFuB-0P--284" style="edgeStyle=orthogonalEdgeStyle;rounded=0;orthogonalLoop=1;jettySize=auto;html=1;" parent="1" source="n799LKl57bNKiFuB-0P--245" target="n799LKl57bNKiFuB-0P--250" edge="1">
          <mxGeometry relative="1" as="geometry" />
        </mxCell>
        <mxCell id="n799LKl57bNKiFuB-0P--245" value="" style="rounded=1;whiteSpace=wrap;html=1;arcSize=34;aspect=fixed;fillColor=#ffe6cc;strokeColor=#d79b00;" parent="1" vertex="1">
          <mxGeometry x="521.7639482564678" y="267.0572222222222" width="45" height="30" as="geometry" />
        </mxCell>
        <mxCell id="n799LKl57bNKiFuB-0P--401" style="edgeStyle=orthogonalEdgeStyle;rounded=0;orthogonalLoop=1;jettySize=auto;html=1;entryX=0.5;entryY=0;entryDx=0;entryDy=0;" parent="1" source="n799LKl57bNKiFuB-0P--250" target="n799LKl57bNKiFuB-0P--285" edge="1">
          <mxGeometry relative="1" as="geometry" />
        </mxCell>
        <mxCell id="n799LKl57bNKiFuB-0P--250" value="" style="rounded=1;whiteSpace=wrap;html=1;rotation=-90;horizontal=1;fillColor=#ffe6cc;strokeColor=#d79b00;" parent="1" vertex="1">
          <mxGeometry x="622.69" y="201.84" width="82.82" height="95.92" as="geometry" />
        </mxCell>
        <mxCell id="n799LKl57bNKiFuB-0P--277" style="edgeStyle=orthogonalEdgeStyle;rounded=0;orthogonalLoop=1;jettySize=auto;html=1;entryX=0.5;entryY=0;entryDx=0;entryDy=0;" parent="1" source="n799LKl57bNKiFuB-0P--253" target="n799LKl57bNKiFuB-0P--250" edge="1">
          <mxGeometry relative="1" as="geometry" />
        </mxCell>
        <mxCell id="n799LKl57bNKiFuB-0P--253" value="" style="rounded=1;whiteSpace=wrap;html=1;arcSize=34;aspect=fixed;fillColor=#ffe6cc;strokeColor=#d79b00;" parent="1" vertex="1">
          <mxGeometry x="521.7639482564678" y="203.15388888888887" width="45" height="30" as="geometry" />
        </mxCell>
        <mxCell id="n799LKl57bNKiFuB-0P--283" style="edgeStyle=orthogonalEdgeStyle;rounded=0;orthogonalLoop=1;jettySize=auto;html=1;entryX=0.5;entryY=0;entryDx=0;entryDy=0;" parent="1" source="n799LKl57bNKiFuB-0P--254" target="n799LKl57bNKiFuB-0P--250" edge="1">
          <mxGeometry relative="1" as="geometry" />
        </mxCell>
        <mxCell id="n799LKl57bNKiFuB-0P--254" value="" style="rounded=1;whiteSpace=wrap;html=1;arcSize=34;aspect=fixed;fillColor=#ffe6cc;strokeColor=#d79b00;" parent="1" vertex="1">
          <mxGeometry x="521.7639482564678" y="320.36388888888905" width="45" height="30" as="geometry" />
        </mxCell>
        <mxCell id="n799LKl57bNKiFuB-0P--440" value="" style="group" parent="1" vertex="1" connectable="0">
          <mxGeometry x="751.0102924634422" y="171.43055555555554" width="107.17266591676025" height="157.36111111111094" as="geometry" />
        </mxCell>
        <mxCell id="n799LKl57bNKiFuB-0P--285" value="" style="shape=trapezoid;perimeter=trapezoidPerimeter;whiteSpace=wrap;html=1;fixedSize=1;rotation=-90;size=35;rounded=1;fillColor=#d5e8d4;strokeColor=#82b366;" parent="n799LKl57bNKiFuB-0P--440" vertex="1">
          <mxGeometry x="-25.217097862767133" y="25.177777777777788" width="157.6068616422947" height="107.00555555555553" as="geometry" />
        </mxCell>
        <mxCell id="n799LKl57bNKiFuB-0P--286" value="" style="group;rounded=1;" parent="n799LKl57bNKiFuB-0P--440" vertex="1" connectable="0">
          <mxGeometry x="9.169853768278958" y="32.90277777777775" width="91.69853768278958" height="96.13333333333328" as="geometry" />
        </mxCell>
        <mxCell id="n799LKl57bNKiFuB-0P--287" style="edgeStyle=none;shape=connector;rounded=1;orthogonalLoop=1;jettySize=auto;html=1;entryX=0;entryY=0.5;entryDx=0;entryDy=0;align=center;verticalAlign=middle;fontFamily=Helvetica;fontSize=11;fontColor=default;labelBackgroundColor=default;endArrow=blockThin;endFill=1;movable=1;resizable=1;rotatable=1;deletable=1;editable=1;locked=0;connectable=1;" parent="n799LKl57bNKiFuB-0P--286" source="n799LKl57bNKiFuB-0P--290" target="n799LKl57bNKiFuB-0P--314" edge="1">
          <mxGeometry relative="1" as="geometry" />
        </mxCell>
        <mxCell id="n799LKl57bNKiFuB-0P--288" style="edgeStyle=none;shape=connector;rounded=1;orthogonalLoop=1;jettySize=auto;html=1;entryX=0;entryY=0.5;entryDx=0;entryDy=0;align=center;verticalAlign=middle;fontFamily=Helvetica;fontSize=11;fontColor=default;labelBackgroundColor=default;endArrow=blockThin;endFill=1;movable=1;resizable=1;rotatable=1;deletable=1;editable=1;locked=0;connectable=1;" parent="n799LKl57bNKiFuB-0P--286" source="n799LKl57bNKiFuB-0P--290" target="n799LKl57bNKiFuB-0P--304" edge="1">
          <mxGeometry relative="1" as="geometry" />
        </mxCell>
        <mxCell id="n799LKl57bNKiFuB-0P--289" style="edgeStyle=none;shape=connector;rounded=1;orthogonalLoop=1;jettySize=auto;html=1;entryX=0;entryY=0.5;entryDx=0;entryDy=0;align=center;verticalAlign=middle;fontFamily=Helvetica;fontSize=11;fontColor=default;labelBackgroundColor=default;endArrow=blockThin;endFill=1;movable=1;resizable=1;rotatable=1;deletable=1;editable=1;locked=0;connectable=1;" parent="n799LKl57bNKiFuB-0P--286" source="n799LKl57bNKiFuB-0P--290" target="n799LKl57bNKiFuB-0P--300" edge="1">
          <mxGeometry relative="1" as="geometry" />
        </mxCell>
        <mxCell id="n799LKl57bNKiFuB-0P--290" value="" style="ellipse;whiteSpace=wrap;html=1;aspect=fixed;rounded=1;align=center;verticalAlign=middle;fontFamily=Helvetica;fontSize=11;labelBackgroundColor=default;movable=1;resizable=1;rotatable=1;deletable=1;editable=1;locked=0;connectable=1;" parent="n799LKl57bNKiFuB-0P--286" vertex="1">
          <mxGeometry y="13.733333333333347" width="12.716049382716049" height="12.716049382716049" as="geometry" />
        </mxCell>
        <mxCell id="n799LKl57bNKiFuB-0P--291" value="" style="ellipse;whiteSpace=wrap;html=1;aspect=fixed;rounded=1;align=center;verticalAlign=middle;fontFamily=Helvetica;fontSize=11;labelBackgroundColor=default;movable=1;resizable=1;rotatable=1;deletable=1;editable=1;locked=0;connectable=1;" parent="n799LKl57bNKiFuB-0P--286" vertex="1">
          <mxGeometry y="41.199999999999974" width="12.716049382716049" height="12.716049382716049" as="geometry" />
        </mxCell>
        <mxCell id="n799LKl57bNKiFuB-0P--292" style="rounded=1;orthogonalLoop=1;jettySize=auto;html=1;entryX=0;entryY=0.5;entryDx=0;entryDy=0;align=center;verticalAlign=middle;fontFamily=Helvetica;fontSize=11;fontColor=default;labelBackgroundColor=default;endArrow=blockThin;endFill=1;movable=1;resizable=1;rotatable=1;deletable=1;editable=1;locked=0;connectable=1;" parent="n799LKl57bNKiFuB-0P--286" source="n799LKl57bNKiFuB-0P--296" target="n799LKl57bNKiFuB-0P--314" edge="1">
          <mxGeometry relative="1" as="geometry" />
        </mxCell>
        <mxCell id="n799LKl57bNKiFuB-0P--293" style="edgeStyle=none;shape=connector;rounded=1;orthogonalLoop=1;jettySize=auto;html=1;entryX=0;entryY=0.5;entryDx=0;entryDy=0;align=center;verticalAlign=middle;fontFamily=Helvetica;fontSize=11;fontColor=default;labelBackgroundColor=default;endArrow=blockThin;endFill=1;movable=1;resizable=1;rotatable=1;deletable=1;editable=1;locked=0;connectable=1;" parent="n799LKl57bNKiFuB-0P--286" source="n799LKl57bNKiFuB-0P--296" target="n799LKl57bNKiFuB-0P--304" edge="1">
          <mxGeometry relative="1" as="geometry" />
        </mxCell>
        <mxCell id="n799LKl57bNKiFuB-0P--294" style="edgeStyle=none;shape=connector;rounded=1;orthogonalLoop=1;jettySize=auto;html=1;entryX=0;entryY=0.5;entryDx=0;entryDy=0;align=center;verticalAlign=middle;fontFamily=Helvetica;fontSize=11;fontColor=default;labelBackgroundColor=default;endArrow=blockThin;endFill=1;movable=1;resizable=1;rotatable=1;deletable=1;editable=1;locked=0;connectable=1;" parent="n799LKl57bNKiFuB-0P--286" source="n799LKl57bNKiFuB-0P--296" target="n799LKl57bNKiFuB-0P--300" edge="1">
          <mxGeometry relative="1" as="geometry" />
        </mxCell>
        <mxCell id="n799LKl57bNKiFuB-0P--295" style="edgeStyle=none;shape=connector;rounded=1;orthogonalLoop=1;jettySize=auto;html=1;entryX=0;entryY=0.5;entryDx=0;entryDy=0;align=center;verticalAlign=middle;fontFamily=Helvetica;fontSize=11;fontColor=default;labelBackgroundColor=default;endArrow=blockThin;endFill=1;movable=1;resizable=1;rotatable=1;deletable=1;editable=1;locked=0;connectable=1;" parent="n799LKl57bNKiFuB-0P--286" source="n799LKl57bNKiFuB-0P--296" target="n799LKl57bNKiFuB-0P--318" edge="1">
          <mxGeometry relative="1" as="geometry" />
        </mxCell>
        <mxCell id="n799LKl57bNKiFuB-0P--296" value="" style="ellipse;whiteSpace=wrap;html=1;aspect=fixed;rounded=1;align=center;verticalAlign=middle;fontFamily=Helvetica;fontSize=11;labelBackgroundColor=default;movable=1;resizable=1;rotatable=1;deletable=1;editable=1;locked=0;connectable=1;" parent="n799LKl57bNKiFuB-0P--286" vertex="1">
          <mxGeometry y="68.66666666666664" width="12.716049382716049" height="12.716049382716049" as="geometry" />
        </mxCell>
        <mxCell id="n799LKl57bNKiFuB-0P--297" style="edgeStyle=none;shape=connector;rounded=1;orthogonalLoop=1;jettySize=auto;html=1;entryX=0;entryY=0.5;entryDx=0;entryDy=0;align=center;verticalAlign=middle;fontFamily=Helvetica;fontSize=11;fontColor=default;labelBackgroundColor=default;endArrow=blockThin;endFill=1;movable=1;resizable=1;rotatable=1;deletable=1;editable=1;locked=0;connectable=1;" parent="n799LKl57bNKiFuB-0P--286" source="n799LKl57bNKiFuB-0P--300" target="n799LKl57bNKiFuB-0P--320" edge="1">
          <mxGeometry relative="1" as="geometry" />
        </mxCell>
        <mxCell id="n799LKl57bNKiFuB-0P--298" style="edgeStyle=none;shape=connector;rounded=1;orthogonalLoop=1;jettySize=auto;html=1;entryX=0;entryY=0.5;entryDx=0;entryDy=0;align=center;verticalAlign=middle;fontFamily=Helvetica;fontSize=11;fontColor=default;labelBackgroundColor=default;endArrow=blockThin;endFill=1;movable=1;resizable=1;rotatable=1;deletable=1;editable=1;locked=0;connectable=1;" parent="n799LKl57bNKiFuB-0P--286" source="n799LKl57bNKiFuB-0P--300" target="n799LKl57bNKiFuB-0P--319" edge="1">
          <mxGeometry relative="1" as="geometry" />
        </mxCell>
        <mxCell id="n799LKl57bNKiFuB-0P--299" style="edgeStyle=none;shape=connector;rounded=1;orthogonalLoop=1;jettySize=auto;html=1;entryX=0;entryY=0.5;entryDx=0;entryDy=0;align=center;verticalAlign=middle;fontFamily=Helvetica;fontSize=11;fontColor=default;labelBackgroundColor=default;endArrow=blockThin;endFill=1;movable=1;resizable=1;rotatable=1;deletable=1;editable=1;locked=0;connectable=1;" parent="n799LKl57bNKiFuB-0P--286" source="n799LKl57bNKiFuB-0P--300" target="n799LKl57bNKiFuB-0P--322" edge="1">
          <mxGeometry relative="1" as="geometry" />
        </mxCell>
        <mxCell id="n799LKl57bNKiFuB-0P--300" value="" style="ellipse;whiteSpace=wrap;html=1;aspect=fixed;rounded=1;align=center;verticalAlign=middle;fontFamily=Helvetica;fontSize=11;labelBackgroundColor=default;movable=1;resizable=1;rotatable=1;deletable=1;editable=1;locked=0;connectable=1;" parent="n799LKl57bNKiFuB-0P--286" vertex="1">
          <mxGeometry x="39.29937329262413" y="82.39999999999995" width="12.716049382716049" height="12.716049382716049" as="geometry" />
        </mxCell>
        <mxCell id="n799LKl57bNKiFuB-0P--301" style="edgeStyle=none;shape=connector;rounded=1;orthogonalLoop=1;jettySize=auto;html=1;entryX=0;entryY=0.5;entryDx=0;entryDy=0;align=center;verticalAlign=middle;fontFamily=Helvetica;fontSize=11;fontColor=default;labelBackgroundColor=default;endArrow=blockThin;endFill=1;movable=1;resizable=1;rotatable=1;deletable=1;editable=1;locked=0;connectable=1;" parent="n799LKl57bNKiFuB-0P--286" source="n799LKl57bNKiFuB-0P--304" target="n799LKl57bNKiFuB-0P--320" edge="1">
          <mxGeometry relative="1" as="geometry" />
        </mxCell>
        <mxCell id="n799LKl57bNKiFuB-0P--302" style="edgeStyle=none;shape=connector;rounded=1;orthogonalLoop=1;jettySize=auto;html=1;entryX=0;entryY=0.5;entryDx=0;entryDy=0;align=center;verticalAlign=middle;fontFamily=Helvetica;fontSize=11;fontColor=default;labelBackgroundColor=default;endArrow=blockThin;endFill=1;movable=1;resizable=1;rotatable=1;deletable=1;editable=1;locked=0;connectable=1;" parent="n799LKl57bNKiFuB-0P--286" source="n799LKl57bNKiFuB-0P--304" target="n799LKl57bNKiFuB-0P--319" edge="1">
          <mxGeometry relative="1" as="geometry" />
        </mxCell>
        <mxCell id="n799LKl57bNKiFuB-0P--303" style="edgeStyle=none;shape=connector;rounded=1;orthogonalLoop=1;jettySize=auto;html=1;entryX=0;entryY=0.5;entryDx=0;entryDy=0;align=center;verticalAlign=middle;fontFamily=Helvetica;fontSize=11;fontColor=default;labelBackgroundColor=default;endArrow=blockThin;endFill=1;movable=1;resizable=1;rotatable=1;deletable=1;editable=1;locked=0;connectable=1;" parent="n799LKl57bNKiFuB-0P--286" source="n799LKl57bNKiFuB-0P--304" target="n799LKl57bNKiFuB-0P--322" edge="1">
          <mxGeometry relative="1" as="geometry" />
        </mxCell>
        <mxCell id="n799LKl57bNKiFuB-0P--304" value="" style="ellipse;whiteSpace=wrap;html=1;aspect=fixed;rounded=1;align=center;verticalAlign=middle;fontFamily=Helvetica;fontSize=11;labelBackgroundColor=default;movable=1;resizable=1;rotatable=1;deletable=1;editable=1;locked=0;connectable=1;" parent="n799LKl57bNKiFuB-0P--286" vertex="1">
          <mxGeometry x="39.29937329262413" y="54.93333333333339" width="12.716049382716049" height="12.716049382716049" as="geometry" />
        </mxCell>
        <mxCell id="n799LKl57bNKiFuB-0P--305" value="" style="ellipse;whiteSpace=wrap;html=1;aspect=fixed;rounded=1;align=center;verticalAlign=middle;fontFamily=Helvetica;fontSize=11;labelBackgroundColor=default;movable=1;resizable=1;rotatable=1;deletable=1;editable=1;locked=0;connectable=1;" parent="n799LKl57bNKiFuB-0P--286" vertex="1">
          <mxGeometry x="39.29937329262413" y="27.466666666666693" width="12.716049382716049" height="12.716049382716049" as="geometry" />
        </mxCell>
        <mxCell id="n799LKl57bNKiFuB-0P--306" style="edgeStyle=none;shape=connector;rounded=1;orthogonalLoop=1;jettySize=auto;html=1;entryX=0;entryY=0.5;entryDx=0;entryDy=0;align=center;verticalAlign=middle;fontFamily=Helvetica;fontSize=11;fontColor=default;labelBackgroundColor=default;endArrow=blockThin;endFill=1;movable=1;resizable=1;rotatable=1;deletable=1;editable=1;locked=0;connectable=1;" parent="n799LKl57bNKiFuB-0P--286" source="n799LKl57bNKiFuB-0P--310" target="n799LKl57bNKiFuB-0P--300" edge="1">
          <mxGeometry relative="1" as="geometry" />
        </mxCell>
        <mxCell id="n799LKl57bNKiFuB-0P--307" style="edgeStyle=none;shape=connector;rounded=1;orthogonalLoop=1;jettySize=auto;html=1;entryX=0;entryY=0.5;entryDx=0;entryDy=0;align=center;verticalAlign=middle;fontFamily=Helvetica;fontSize=11;fontColor=default;labelBackgroundColor=default;endArrow=blockThin;endFill=1;movable=1;resizable=1;rotatable=1;deletable=1;editable=1;locked=0;connectable=1;" parent="n799LKl57bNKiFuB-0P--286" source="n799LKl57bNKiFuB-0P--310" target="n799LKl57bNKiFuB-0P--304" edge="1">
          <mxGeometry relative="1" as="geometry" />
        </mxCell>
        <mxCell id="n799LKl57bNKiFuB-0P--308" style="edgeStyle=none;shape=connector;rounded=1;orthogonalLoop=1;jettySize=auto;html=1;entryX=0;entryY=0.5;entryDx=0;entryDy=0;align=center;verticalAlign=middle;fontFamily=Helvetica;fontSize=11;fontColor=default;labelBackgroundColor=default;endArrow=blockThin;endFill=1;movable=1;resizable=1;rotatable=1;deletable=1;editable=1;locked=0;connectable=1;" parent="n799LKl57bNKiFuB-0P--286" source="n799LKl57bNKiFuB-0P--310" target="n799LKl57bNKiFuB-0P--314" edge="1">
          <mxGeometry relative="1" as="geometry" />
        </mxCell>
        <mxCell id="n799LKl57bNKiFuB-0P--309" style="edgeStyle=none;shape=connector;rounded=1;orthogonalLoop=1;jettySize=auto;html=1;entryX=0;entryY=0.5;entryDx=0;entryDy=0;align=center;verticalAlign=middle;fontFamily=Helvetica;fontSize=11;fontColor=default;labelBackgroundColor=default;endArrow=blockThin;endFill=1;movable=1;resizable=1;rotatable=1;deletable=1;editable=1;locked=0;connectable=1;" parent="n799LKl57bNKiFuB-0P--286" source="n799LKl57bNKiFuB-0P--310" target="n799LKl57bNKiFuB-0P--318" edge="1">
          <mxGeometry relative="1" as="geometry" />
        </mxCell>
        <mxCell id="n799LKl57bNKiFuB-0P--310" value="" style="ellipse;whiteSpace=wrap;html=1;aspect=fixed;rounded=1;align=center;verticalAlign=middle;fontFamily=Helvetica;fontSize=11;labelBackgroundColor=default;movable=1;resizable=1;rotatable=1;deletable=1;editable=1;locked=0;connectable=1;" parent="n799LKl57bNKiFuB-0P--286" vertex="1">
          <mxGeometry y="41.199999999999974" width="12.716049382716049" height="12.716049382716049" as="geometry" />
        </mxCell>
        <mxCell id="n799LKl57bNKiFuB-0P--311" style="edgeStyle=none;shape=connector;rounded=1;orthogonalLoop=1;jettySize=auto;html=1;entryX=0;entryY=0.5;entryDx=0;entryDy=0;align=center;verticalAlign=middle;fontFamily=Helvetica;fontSize=11;fontColor=default;labelBackgroundColor=default;endArrow=blockThin;endFill=1;movable=1;resizable=1;rotatable=1;deletable=1;editable=1;locked=0;connectable=1;" parent="n799LKl57bNKiFuB-0P--286" source="n799LKl57bNKiFuB-0P--314" target="n799LKl57bNKiFuB-0P--319" edge="1">
          <mxGeometry relative="1" as="geometry" />
        </mxCell>
        <mxCell id="n799LKl57bNKiFuB-0P--312" style="edgeStyle=none;shape=connector;rounded=1;orthogonalLoop=1;jettySize=auto;html=1;entryX=0;entryY=0.5;entryDx=0;entryDy=0;align=center;verticalAlign=middle;fontFamily=Helvetica;fontSize=11;fontColor=default;labelBackgroundColor=default;endArrow=blockThin;endFill=1;movable=1;resizable=1;rotatable=1;deletable=1;editable=1;locked=0;connectable=1;" parent="n799LKl57bNKiFuB-0P--286" source="n799LKl57bNKiFuB-0P--314" target="n799LKl57bNKiFuB-0P--320" edge="1">
          <mxGeometry relative="1" as="geometry" />
        </mxCell>
        <mxCell id="n799LKl57bNKiFuB-0P--313" style="edgeStyle=none;shape=connector;rounded=1;orthogonalLoop=1;jettySize=auto;html=1;entryX=0;entryY=0.5;entryDx=0;entryDy=0;align=center;verticalAlign=middle;fontFamily=Helvetica;fontSize=11;fontColor=default;labelBackgroundColor=default;endArrow=blockThin;endFill=1;movable=1;resizable=1;rotatable=1;deletable=1;editable=1;locked=0;connectable=1;" parent="n799LKl57bNKiFuB-0P--286" source="n799LKl57bNKiFuB-0P--314" target="n799LKl57bNKiFuB-0P--322" edge="1">
          <mxGeometry relative="1" as="geometry" />
        </mxCell>
        <mxCell id="n799LKl57bNKiFuB-0P--314" value="" style="ellipse;whiteSpace=wrap;html=1;aspect=fixed;rounded=1;align=center;verticalAlign=middle;fontFamily=Helvetica;fontSize=11;labelBackgroundColor=default;movable=1;resizable=1;rotatable=1;deletable=1;editable=1;locked=0;connectable=1;" parent="n799LKl57bNKiFuB-0P--286" vertex="1">
          <mxGeometry x="39.29937329262413" y="27.466666666666693" width="12.716049382716049" height="12.716049382716049" as="geometry" />
        </mxCell>
        <mxCell id="n799LKl57bNKiFuB-0P--315" style="edgeStyle=none;shape=connector;rounded=1;orthogonalLoop=1;jettySize=auto;html=1;entryX=0;entryY=0.5;entryDx=0;entryDy=0;align=center;verticalAlign=middle;fontFamily=Helvetica;fontSize=11;fontColor=default;labelBackgroundColor=default;endArrow=blockThin;endFill=1;movable=1;resizable=1;rotatable=1;deletable=1;editable=1;locked=0;connectable=1;" parent="n799LKl57bNKiFuB-0P--286" source="n799LKl57bNKiFuB-0P--318" target="n799LKl57bNKiFuB-0P--319" edge="1">
          <mxGeometry relative="1" as="geometry" />
        </mxCell>
        <mxCell id="n799LKl57bNKiFuB-0P--316" style="edgeStyle=none;shape=connector;rounded=1;orthogonalLoop=1;jettySize=auto;html=1;entryX=0;entryY=0.5;entryDx=0;entryDy=0;align=center;verticalAlign=middle;fontFamily=Helvetica;fontSize=11;fontColor=default;labelBackgroundColor=default;endArrow=blockThin;endFill=1;movable=1;resizable=1;rotatable=1;deletable=1;editable=1;locked=0;connectable=1;" parent="n799LKl57bNKiFuB-0P--286" source="n799LKl57bNKiFuB-0P--318" target="n799LKl57bNKiFuB-0P--320" edge="1">
          <mxGeometry relative="1" as="geometry" />
        </mxCell>
        <mxCell id="n799LKl57bNKiFuB-0P--317" style="edgeStyle=none;shape=connector;rounded=1;orthogonalLoop=1;jettySize=auto;html=1;entryX=0;entryY=0.5;entryDx=0;entryDy=0;align=center;verticalAlign=middle;fontFamily=Helvetica;fontSize=11;fontColor=default;labelBackgroundColor=default;endArrow=blockThin;endFill=1;movable=1;resizable=1;rotatable=1;deletable=1;editable=1;locked=0;connectable=1;" parent="n799LKl57bNKiFuB-0P--286" source="n799LKl57bNKiFuB-0P--318" target="n799LKl57bNKiFuB-0P--322" edge="1">
          <mxGeometry relative="1" as="geometry" />
        </mxCell>
        <mxCell id="n799LKl57bNKiFuB-0P--318" value="" style="ellipse;whiteSpace=wrap;html=1;aspect=fixed;rounded=1;align=center;verticalAlign=middle;fontFamily=Helvetica;fontSize=11;labelBackgroundColor=default;movable=1;resizable=1;rotatable=1;deletable=1;editable=1;locked=0;connectable=1;" parent="n799LKl57bNKiFuB-0P--286" vertex="1">
          <mxGeometry x="39.29937329262413" width="12.716049382716049" height="12.716049382716049" as="geometry" />
        </mxCell>
        <mxCell id="n799LKl57bNKiFuB-0P--319" value="" style="ellipse;whiteSpace=wrap;html=1;aspect=fixed;movable=1;resizable=1;rotatable=1;deletable=1;editable=1;locked=0;connectable=1;rounded=1;" parent="n799LKl57bNKiFuB-0P--286" vertex="1">
          <mxGeometry x="78.59874658524826" y="13.733333333333347" width="12.716049382716049" height="12.716049382716049" as="geometry" />
        </mxCell>
        <mxCell id="n799LKl57bNKiFuB-0P--320" value="" style="ellipse;whiteSpace=wrap;html=1;aspect=fixed;movable=1;resizable=1;rotatable=1;deletable=1;editable=1;locked=0;connectable=1;rounded=1;" parent="n799LKl57bNKiFuB-0P--286" vertex="1">
          <mxGeometry x="78.59874658524826" y="68.66666666666664" width="12.716049382716049" height="12.716049382716049" as="geometry" />
        </mxCell>
        <mxCell id="n799LKl57bNKiFuB-0P--321" style="edgeStyle=none;shape=connector;rounded=1;orthogonalLoop=1;jettySize=auto;html=1;entryX=0.013;entryY=0.68;entryDx=0;entryDy=0;entryPerimeter=0;align=center;verticalAlign=middle;fontFamily=Helvetica;fontSize=11;fontColor=default;labelBackgroundColor=default;endArrow=blockThin;endFill=1;movable=1;resizable=1;rotatable=1;deletable=1;editable=1;locked=0;connectable=1;" parent="n799LKl57bNKiFuB-0P--286" source="n799LKl57bNKiFuB-0P--290" target="n799LKl57bNKiFuB-0P--318" edge="1">
          <mxGeometry relative="1" as="geometry" />
        </mxCell>
        <mxCell id="n799LKl57bNKiFuB-0P--322" value="" style="ellipse;whiteSpace=wrap;html=1;aspect=fixed;movable=1;resizable=1;rotatable=1;deletable=1;editable=1;locked=0;connectable=1;rounded=1;" parent="n799LKl57bNKiFuB-0P--286" vertex="1">
          <mxGeometry x="78.59874658524826" y="41.199999999999974" width="12.716049382716049" height="12.716049382716049" as="geometry" />
        </mxCell>
        <mxCell id="n799LKl57bNKiFuB-0P--482" value="" style="rounded=1;whiteSpace=wrap;html=1;rotation=90;fillColor=#dae8fc;strokeColor=#6c8ebf;" parent="1" vertex="1">
          <mxGeometry x="909" y="230.14999999999998" width="90.4" height="40.06" as="geometry" />
        </mxCell>
        <mxCell id="n799LKl57bNKiFuB-0P--492" value="&lt;font style=&quot;font-size: 10px;&quot;&gt;$$ \mathbf{z} = \boldsymbol{\mu} + \boldsymbol{\sigma} \odot \boldsymbol{\epsilon} $$&lt;/font&gt;" style="text;strokeColor=none;align=center;fillColor=none;html=1;verticalAlign=middle;whiteSpace=wrap;rounded=0;" parent="1" vertex="1">
          <mxGeometry x="629.72" y="233.15" width="68.77" height="36.85" as="geometry" />
        </mxCell>
        <mxCell id="n799LKl57bNKiFuB-0P--495" value="&lt;font style=&quot;font-size: 7px;&quot;&gt;$$ \boldsymbol{\epsilon} \sim \mathcal{N}(\mathbf{0}, \mathbf{I}) $$&lt;/font&gt;" style="text;strokeColor=none;align=center;fillColor=none;html=1;verticalAlign=middle;whiteSpace=wrap;rounded=0;" parent="1" vertex="1">
          <mxGeometry x="512.98" y="327.36" width="62.56" height="16" as="geometry" />
        </mxCell>
        <mxCell id="n799LKl57bNKiFuB-0P--496" value="&lt;font style=&quot;font-size: 12px;&quot;&gt;$$ \boldsymbol{\mu} $$&lt;/font&gt;" style="text;html=1;align=center;verticalAlign=middle;resizable=0;points=[];autosize=1;strokeColor=none;fillColor=none;" parent="1" vertex="1">
          <mxGeometry x="469.26000000000005" y="201.84" width="150" height="30" as="geometry" />
        </mxCell>
        <mxCell id="n799LKl57bNKiFuB-0P--498" value="&lt;span style=&quot;font-size: 9px;&quot;&gt;$$ \log \boldsymbol{\sigma}^2 $$&lt;/span&gt;" style="text;html=1;align=center;verticalAlign=middle;resizable=0;points=[];autosize=1;strokeColor=none;fillColor=none;" parent="1" vertex="1">
          <mxGeometry x="464.26" y="267.06" width="160" height="30" as="geometry" />
        </mxCell>
        <mxCell id="n799LKl57bNKiFuB-0P--501" value="$$ \mathbf{w} $$" style="text;html=1;align=center;verticalAlign=middle;resizable=0;points=[];autosize=1;strokeColor=none;fillColor=none;" parent="1" vertex="1">
          <mxGeometry x="232.47" y="229.55" width="110" height="30" as="geometry" />
        </mxCell>
        <mxCell id="n799LKl57bNKiFuB-0P--503" value="$$ \hat{\mathbf{w}} $$" style="text;html=1;align=center;verticalAlign=middle;resizable=0;points=[];autosize=1;strokeColor=none;fillColor=none;" parent="1" vertex="1">
          <mxGeometry x="884.2" y="235.11" width="140" height="30" as="geometry" />
        </mxCell>
        <mxCell id="-g7O2IScJnrbDrAP_Y5o-1" style="edgeStyle=orthogonalEdgeStyle;rounded=0;orthogonalLoop=1;jettySize=auto;html=1;entryX=0.465;entryY=0.985;entryDx=0;entryDy=0;entryPerimeter=0;" parent="1" source="n799LKl57bNKiFuB-0P--148" target="n799LKl57bNKiFuB-0P--150" edge="1">
          <mxGeometry relative="1" as="geometry" />
        </mxCell>
        <mxCell id="-g7O2IScJnrbDrAP_Y5o-2" style="edgeStyle=orthogonalEdgeStyle;rounded=0;orthogonalLoop=1;jettySize=auto;html=1;entryX=0.5;entryY=1;entryDx=0;entryDy=0;" parent="1" source="n799LKl57bNKiFuB-0P--285" target="n799LKl57bNKiFuB-0P--482" edge="1">
          <mxGeometry relative="1" as="geometry" />
        </mxCell>
      </root>
    </mxGraphModel>
  </diagram>
</mxfile>
